<svg width="42" height="52.5" xmlns="http://www.w3.org/2000/svg" version="1.1">

 <g>
  <title>Layer 1</title>
  <path fill="white" id="svg_1" d="m19.317,33.93l-0.482,0.41c-0.483,0.332 -0.556,0.984 -0.235,1.482l3.013,4.434c0.396,0.5 1.039,0.576 1.507,0.243l11.584,-8.536c0.482,-0.408 0.555,-1.075 0.233,-1.558l-3.013,-4.36c-0.322,-0.498 -0.95,-0.65 -1.432,-0.241l-0.483,0.333c0.16,1.074 0.073,2.3 -0.235,3.451c-1.184,3.783 -5.47,6.158 -9.126,4.933c-0.453,-0.106 -0.847,-0.348 -1.331,-0.591zm4.534,-4.6c1.038,-0.575 1.433,-1.967 0.878,-3.042c-0.556,-1.075 -1.829,-1.558 -2.94,-0.983c-1.039,0.575 -1.434,1.967 -0.878,3.041c0.556,1.151 1.827,1.559 2.94,0.984zm-8.175,-0.409l-6.114,-4.267l-3.656,0.741l5.397,3.693c1.433,0.908 3.013,1.15 4.519,0.5c-0.073,-0.258 -0.073,-0.425 -0.146,-0.667zm-5.558,-8.626l-1.506,1.15c-0.234,0.167 -0.63,0.167 -0.878,0l-3.407,-2.633c-0.79,1.649 -0.717,3.784 0.321,5.343l5.002,-0.984l0.483,0.166l5.396,3.692c0,-0.65 0.162,-1.316 0.322,-1.967l-5.733,-4.767zm12.461,-12.652l0.877,4.934c0.073,0.243 -0.072,0.575 -0.322,0.742l-1.433,1.074l2.545,5.585c1.038,0.166 1.99,0.65 2.853,1.316c1.183,-1.559 0.789,-3.617 0.16,-5.342l-2.223,-5.918c-0.483,-1.149 -1.346,-1.891 -2.457,-2.391zm-5.235,14.621l-3.496,-4.678l-0.878,0.576c-0.234,0.242 -0.717,0.166 -0.877,-0.167l-2.779,-3.45c-1.185,0.817 -3.174,2.057 -4.125,3.117l3.013,2.301l1.508,-1.151c0.233,-0.167 0.554,-0.167 0.788,0l5.88,4.843c0.321,-0.484 0.643,-0.893 0.966,-1.391zm2.061,-1.561l-3.495,-5.584c-0.234,-0.331 -0.161,-0.741 0.159,-0.983l0.879,-0.65l-1.74,-3.285l-4.769,3.452l2.297,2.949l0.79,-0.574c0.322,-0.243 0.716,-0.167 0.95,0.075l3.891,5.176c0.321,-0.166 0.628,-0.409 1.038,-0.576zm-3.1,-11.334l2.149,4.025c0.161,0.334 0.072,0.742 -0.234,0.909l-0.789,0.574l3.246,5.253c0.63,-0.243 1.273,-0.334 1.989,-0.334l-2.457,-5.342c-0.161,-0.334 -0.073,-0.742 0.234,-0.908l1.593,-1.226l-0.949,-5.009c-1.184,-0.166 -2.296,0.242 -3.247,0.907l-1.535,1.151zm4.767,23.73c3.101,1.074 6.435,-0.742 7.386,-3.936c0.949,-3.283 -0.79,-6.658 -3.891,-7.642c-3.1,-0.984 -6.434,0.743 -7.385,4.026c-0.951,3.117 0.702,6.567 3.89,7.552zm3.408,-2.542c-1.742,0.983 -3.89,0.242 -4.841,-1.485c-0.877,-1.8 -0.234,-4.1 1.506,-5.008c1.742,-0.983 3.891,-0.243 4.841,1.559c0.878,1.816 0.235,4.041 -1.506,4.934z"/>
 </g>
</svg>