<?xml version="1.0" encoding="utf-8"?>
<svg version="1.1" x="0px" y="0px" viewBox="0 0 42 52.5" style="enable-background:new 0 0 42 42;" xmlns="http://www.w3.org/2000/svg">
  <style type="text/css">
	.st0{fill-rule:evenodd;clip-rule:evenodd;}
</style>
  <path d="M 19.317 33.93 L 18.835 34.34 C 18.352 34.672 18.279 35.324 18.6 35.822 L 21.613 40.256 C 22.009 40.756 22.652 40.832 23.12 40.499 L 34.704 31.963 C 35.186 31.555 35.259 30.888 34.937 30.405 L 31.924 26.045 C 31.602 25.547 30.974 25.395 30.492 25.804 L 30.009 26.137 C 30.169 27.211 30.082 28.437 29.774 29.588 C 28.59 33.371 24.304 35.746 20.648 34.521 C 20.195 34.415 19.801 34.173 19.317 33.93 Z M 23.851 29.33 C 24.889 28.755 25.284 27.363 24.729 26.288 C 24.173 25.213 22.9 24.73 21.789 25.305 C 20.75 25.88 20.355 27.272 20.911 28.346 C 21.467 29.497 22.738 29.905 23.851 29.33 Z M 15.676 28.921 L 9.562 24.654 L 5.906 25.395 L 11.303 29.088 C 12.736 29.996 14.316 30.238 15.822 29.588 C 15.749 29.33 15.749 29.163 15.676 28.921 Z M 10.118 20.295 L 8.612 21.445 C 8.378 21.612 7.982 21.612 7.734 21.445 L 4.327 18.812 C 3.537 20.461 3.61 22.596 4.648 24.155 L 9.65 23.171 L 10.133 23.337 L 15.529 27.029 C 15.529 26.379 15.691 25.713 15.851 25.062 L 10.118 20.295 Z M 22.579 7.643 L 23.456 12.577 C 23.529 12.82 23.384 13.152 23.134 13.319 L 21.701 14.393 L 24.246 19.978 C 25.284 20.144 26.236 20.628 27.099 21.294 C 28.282 19.735 27.888 17.677 27.259 15.952 L 25.036 10.034 C 24.553 8.885 23.69 8.143 22.579 7.643 Z M 17.344 22.264 L 13.848 17.586 L 12.97 18.162 C 12.736 18.404 12.253 18.328 12.093 17.995 L 9.314 14.545 C 8.129 15.362 6.14 16.602 5.189 17.662 L 8.202 19.963 L 9.71 18.812 C 9.943 18.645 10.264 18.645 10.498 18.812 L 16.378 23.655 C 16.699 23.171 17.021 22.762 17.344 22.264 Z M 19.405 20.703 L 15.91 15.119 C 15.676 14.788 15.749 14.378 16.069 14.136 L 16.948 13.486 L 15.208 10.201 L 10.439 13.653 L 12.736 16.602 L 13.526 16.028 C 13.848 15.785 14.242 15.861 14.476 16.103 L 18.367 21.279 C 18.688 21.113 18.995 20.87 19.405 20.703 Z M 16.305 9.369 L 18.454 13.394 C 18.615 13.728 18.526 14.136 18.22 14.303 L 17.431 14.877 L 20.677 20.13 C 21.307 19.887 21.95 19.796 22.666 19.796 L 20.209 14.454 C 20.048 14.12 20.136 13.712 20.443 13.546 L 22.036 12.32 L 21.087 7.311 C 19.903 7.145 18.791 7.553 17.84 8.218 L 16.305 9.369 Z M 21.072 33.099 C 24.173 34.173 27.507 32.357 28.458 29.163 C 29.407 25.88 27.668 22.505 24.567 21.521 C 21.467 20.537 18.133 22.264 17.182 25.547 C 16.231 28.664 17.884 32.114 21.072 33.099 Z M 24.48 30.557 C 22.738 31.54 20.59 30.799 19.639 29.072 C 18.762 27.272 19.405 24.972 21.145 24.064 C 22.887 23.081 25.036 23.821 25.986 25.623 C 26.864 27.439 26.221 29.664 24.48 30.557 Z" style=""/>
</svg>