<?xml version="1.0" encoding="iso-8859-1"?>
<!-- Uploaded to: SVG Repo, www.svgrepo.com, Generator: SVG Repo Mixer Tools -->
<svg height="800px" width="800px" version="1.1" id="Layer_1" xmlns="http://www.w3.org/2000/svg" xmlns:xlink="http://www.w3.org/1999/xlink" 
	 viewBox="0 0 512.11 512.11" xml:space="preserve">
<g transform="translate(0 1)">
	<path style="fill:#FDC794;" d="M503.283,216.214c0,24.717-18.538,43.255-44.138,43.255c-22.952,0-44.138-16.772-44.138-38.841
		v-42.372c0,25.6-21.186,45.903-45.903,45.903c-22.952,0-42.372-18.538-42.372-42.372v-5.297l-3.531,0.883
		c-6.179,16.772-22.952,29.131-42.372,29.131c-13.241,0-24.717-6.179-32.662-15.89l-12.359,1.766
		c-6.179,18.538-22.952,31.779-43.255,31.779c-15.007,0-28.248-7.945-35.31-20.303l-36.193-35.31
		c-7.062-7.062-14.124-15.007-20.303-22.069c-20.303-23.834-56.497-34.428-81.214-24.717c-4.414,1.766-7.062,3.531-10.593,5.297
		c-10.593,7.062-8.828,15.007-8.828,17.655c0,2.648,41.49,53.848,70.621,105.931c0,0,30.897,52.966,57.379,82.979
		c4.414,5.297,8.828,11.476,13.241,16.772l17.655,23.834v35.31c0,53.848,43.255,97.103,97.103,97.103h109.462
		c44.138,0,89.159-40.607,97.103-82.979c1.766-10.593,7.062-21.186,14.124-30.014c8.828-12.359,27.366-38.841,27.366-75.034v-102.4
		H503.283z"/>
	<g>
		<path style="fill:#F9A671;" d="M220.8,425.428c-0.883,0-0.883,0-1.766,0c-24.717-3.531-37.076-19.421-47.669-32.662
			c-3.531-4.414-7.062-8.828-10.593-13.241c-3.531-3.531-3.531-8.828,0-12.359c3.531-3.531,8.828-3.531,12.359,0
			c4.414,4.414,8.828,9.71,12.359,14.124c9.71,12.359,18.538,22.952,36.193,25.6c4.414,0.883,7.945,5.297,7.062,9.71
			C228.745,422.779,225.214,425.428,220.8,425.428z"/>
		<path style="fill:#F9A671;" d="M432.662,427.193c-3.531,0-7.062-2.648-8.828-6.179c-0.883-4.414,1.766-9.71,6.179-10.593
			c17.655-4.414,20.303-7.945,25.6-15.89c1.766-1.766,2.648-4.414,5.297-7.062c2.648-3.531,8.828-4.414,12.359-1.766
			c3.531,2.648,4.414,8.828,1.766,12.359c-1.766,2.648-3.531,4.414-4.414,6.179c-7.062,10.593-12.359,17.655-36.193,23.835
			C434.428,427.193,433.545,427.193,432.662,427.193z"/>
		<path style="fill:#F9A671;" d="M229.628,294.779c-4.414,0-8.828-3.531-8.828-7.945c-0.883-10.593-6.179-15.007-14.124-19.421
			c-24.717-16.772-50.317-45.903-64.441-63.559c-2.648-3.531-5.297-6.179-7.062-8.828c-3.531-3.531-2.648-8.828,0.883-12.359
			c3.531-3.531,8.828-2.648,12.359,0.883c1.766,2.648,4.414,5.297,7.945,8.828c14.124,16.772,37.959,45.021,60.91,60.028
			c7.945,5.297,20.303,13.241,21.186,33.545C238.455,290.366,234.924,294.779,229.628,294.779L229.628,294.779z"/>
	</g>
	<path style="fill:#FDC794;" d="M192.552,224.159L192.552,224.159c-22.952,0-42.372-18.538-42.372-42.372V69.676
		c0-19.421,15.89-39.724,35.31-39.724h17.655c19.421,0,35.31,20.303,35.31,39.724v108.579
		C238.455,202.972,217.269,224.159,192.552,224.159"/>
	<path style="fill:#F9A671;" d="M192.552,232.986c-28.248,0-51.2-22.952-51.2-51.2V69.676c0-22.952,18.538-48.552,44.138-48.552
		h17.655c25.6,0,44.138,25.6,44.138,48.552v108.579C247.283,208.269,222.566,232.986,192.552,232.986z M185.49,38.779
		c-15.007,0-26.483,16.772-26.483,30.897v112.993c0,18.538,15.007,33.545,33.545,33.545c20.303,0,37.076-16.772,37.076-37.076
		V69.676c0-14.124-11.476-30.897-26.483-30.897H185.49z"/>
	<path style="fill:#FDC794;" d="M280.828,206.503L280.828,206.503c-22.952,0-42.372-18.538-42.372-42.372V52.021
		c0-19.421,15.89-39.724,35.31-39.724h17.655c19.421,0,35.31,20.303,35.31,39.724V160.6
		C326.731,185.317,305.545,206.503,280.828,206.503"/>
	<path style="fill:#F9A671;" d="M280.828,215.331c-28.248,0-51.2-22.952-51.2-51.2V52.021c0-22.952,18.538-48.552,44.138-48.552
		h17.655c25.6,0,44.138,25.6,44.138,48.552V160.6C335.559,190.614,310.841,215.331,280.828,215.331z M273.766,21.124
		c-15.007,0-26.483,16.772-26.483,30.897v112.993c0,18.538,15.007,33.545,33.545,33.545c20.303,0,37.076-16.772,37.076-37.076
		V52.021c0-14.124-11.476-30.897-26.483-30.897H273.766z"/>
	<path style="fill:#FDC794;" d="M369.103,224.159L369.103,224.159c-22.952,0-42.372-18.538-42.372-42.372V69.676
		c0-19.421,15.89-39.724,35.31-39.724h17.655c19.421,0,35.31,20.303,35.31,39.724v108.579
		C415.007,202.972,393.821,224.159,369.103,224.159"/>
	<path style="fill:#F9A671;" d="M369.103,232.986c-28.248,0-51.2-22.952-51.2-51.2V69.676c0-22.952,18.538-48.552,44.138-48.552
		h17.655c25.6,0,44.138,25.6,44.138,48.552v108.579C423.834,208.269,399.117,232.986,369.103,232.986z M362.041,38.779
		c-15.007,0-26.483,16.772-26.483,30.897v112.993c0,18.538,15.007,33.545,33.545,33.545c20.303,0,37.076-16.772,37.076-37.076
		V69.676c0-14.124-11.476-30.897-26.483-30.897H362.041z"/>
	<path style="fill:#FDC794;" d="M459.145,259.469L459.145,259.469c-22.952,0-44.138-16.772-44.138-39.724V112.048
		c0-18.538,15.89-37.959,35.31-37.959h17.655c19.421,0,35.31,19.421,35.31,37.959v104.166
		C503.283,240.931,484.745,259.469,459.145,259.469"/>
	<path style="fill:#F9A671;" d="M459.145,268.297c-29.131,0-52.966-21.186-52.966-48.552V112.048
		c0-22.069,18.538-46.786,44.138-46.786h17.655c25.6,0,44.138,24.717,44.138,46.786v104.166
		C512.11,246.228,489.159,268.297,459.145,268.297z M450.317,82.917c-15.007,0-26.483,15.89-26.483,29.131v107.697
		c0,16.772,15.89,30.897,35.31,30.897c20.303,0,35.31-15.007,35.31-34.428V112.048c0-13.241-11.476-29.131-26.483-29.131H450.317z"
		/>
</g>
</svg>