<?xml version="1.0" encoding="utf-8"?>
<svg version="1.1" x="0px" y="0px" viewBox="0 0 42 52.5" style="enable-background:new 0 0 42 42;" xmlns="http://www.w3.org/2000/svg">
  <style type="text/css">
	.st0{fill-rule:evenodd;clip-rule:evenodd;}
</style>
  <path d="M 12.654 14.36 L 14.444 16.86 C 15.204 17.95 16.834 16.75 16.074 15.67 L 14.284 13.17 L 12.654 14.36 Z M 10.154 10.83 L 12.104 13.54 L 13.734 12.4 L 11.784 9.63 L 10.154 10.83 Z M 7.824 7.57 L 9.614 10.07 L 11.244 8.88 L 9.454 6.38 C 8.684 5.29 7.004 6.43 7.824 7.57 Z M 17.534 19.73 C 18.074 19.46 18.294 18.75 18.024 18.21 C 17.754 17.72 17.044 17.5 16.504 17.78 C 15.964 18.05 15.794 18.76 16.074 19.25 C 16.344 19.78 16.994 20 17.534 19.73 Z M 24.804 33.46 L 24.474 33.73 C 24.144 33.95 24.094 34.38 24.314 34.71 L 26.374 37.64 C 26.644 37.97 27.084 38.02 27.404 37.8 L 35.324 32.16 C 35.654 31.89 35.704 31.45 35.484 31.13 L 33.424 28.25 C 33.204 27.92 32.774 27.82 32.444 28.09 L 32.114 28.31 C 32.224 29.02 32.164 29.83 31.954 30.59 C 31.144 33.09 28.214 34.66 25.714 33.85 C 25.404 33.78 25.134 33.62 24.804 33.46 Z M 27.904 30.42 C 28.614 30.04 28.884 29.12 28.504 28.41 C 28.124 27.7 27.254 27.38 26.494 27.76 C 25.784 28.14 25.514 29.06 25.894 29.77 C 26.274 30.53 27.144 30.8 27.904 30.42 Z M 22.314 30.15 L 18.134 27.33 L 15.634 27.82 L 19.324 30.26 C 20.304 30.86 21.384 31.02 22.414 30.59 C 22.364 30.42 22.364 30.31 22.314 30.15 Z M 18.514 24.45 L 17.484 25.21 C 17.324 25.32 17.054 25.32 16.884 25.21 L 14.554 23.47 C 14.014 24.56 14.064 25.97 14.774 27 L 18.194 26.35 L 18.524 26.46 L 22.214 28.9 C 22.214 28.47 22.324 28.03 22.434 27.6 L 18.514 24.45 Z M 27.034 16.09 L 27.634 19.35 C 27.684 19.51 27.584 19.73 27.414 19.84 L 26.434 20.55 L 28.174 24.24 C 28.884 24.35 29.534 24.67 30.124 25.11 C 30.934 24.08 30.664 22.72 30.234 21.58 L 28.714 17.67 C 28.384 16.91 27.794 16.42 27.034 16.09 Z M 23.454 25.75 L 21.064 22.66 L 20.464 23.04 C 20.304 23.2 19.974 23.15 19.864 22.93 L 17.964 20.65 C 17.154 21.19 15.794 22.01 15.144 22.71 L 17.204 24.23 L 18.234 23.47 C 18.394 23.36 18.614 23.36 18.774 23.47 L 22.794 26.67 C 23.014 26.35 23.234 26.08 23.454 25.75 Z M 24.864 24.72 L 22.474 21.03 C 22.314 20.81 22.364 20.54 22.584 20.38 L 23.184 19.95 L 21.994 17.78 L 18.734 20.06 L 20.304 22.01 L 20.844 21.63 C 21.064 21.47 21.334 21.52 21.494 21.68 L 24.154 25.1 C 24.374 24.99 24.584 24.83 24.864 24.72 Z M 22.744 17.23 L 24.214 19.89 C 24.324 20.11 24.264 20.38 24.054 20.49 L 23.514 20.87 L 25.734 24.34 C 26.164 24.18 26.604 24.12 27.094 24.12 L 25.414 20.59 C 25.304 20.37 25.364 20.1 25.574 19.99 L 26.664 19.18 L 26.014 15.87 C 25.204 15.76 24.444 16.03 23.794 16.47 L 22.744 17.23 Z M 4.564 16.09 L 5.864 14.52 L 4.234 13.11 C 3.254 12.24 1.844 13.76 2.874 14.63 L 4.564 16.09 Z M 9.614 17.77 L 8.314 19.29 L 9.994 20.7 C 11.024 21.62 12.274 20.05 11.294 19.18 L 9.614 17.77 Z M 7.604 18.64 L 8.904 17.12 L 6.624 15.17 L 5.324 16.69 L 7.604 18.64 Z M 13.464 22.93 C 14.004 22.66 14.224 22.01 13.954 21.46 C 13.684 20.92 12.974 20.7 12.434 20.97 C 11.894 21.24 11.674 21.95 12.004 22.49 C 12.274 23.04 12.924 23.2 13.464 22.93 Z M 26.004 32.91 C 28.124 33.62 30.404 32.42 31.054 30.31 C 31.704 28.14 30.514 25.91 28.394 25.26 C 26.274 24.61 23.994 25.75 23.344 27.92 C 22.694 29.98 23.824 32.26 26.004 32.91 Z M 28.334 31.23 C 27.144 31.88 25.674 31.39 25.024 30.25 C 24.424 29.06 24.864 27.54 26.054 26.94 C 27.244 26.29 28.714 26.78 29.364 27.97 C 29.964 29.17 29.524 30.64 28.334 31.23 Z"/>
  <text x="0" y="57" fill="#000000" font-size="5px" font-weight="bold" font-family="'Helvetica Neue', Helvetica, Arial-Unicode, Arial, Sans-serif" style="white-space: pre;">Created by Besokpagi</text>
  <text x="0" y="62" fill="#000000" font-size="5px" font-weight="bold" font-family="'Helvetica Neue', Helvetica, Arial-Unicode, Arial, Sans-serif" style="white-space: pre;">from the Noun Project</text>
</svg>