<svg width="42" height="52.49999999999999" xmlns="http://www.w3.org/2000/svg" version="1.1">

 <g>
  <title>Layer 1</title>
  <path fill="#ffffff" id="svg_1" d="m12.654,14.36l1.79,2.5c0.76,1.09 2.39,-0.11 1.63,-1.19l-1.79,-2.5l-1.63,1.19zm-2.5,-3.53l1.95,2.71l1.63,-1.14l-1.95,-2.77l-1.63,1.2zm-2.33,-3.26l1.79,2.5l1.63,-1.19l-1.79,-2.5c-0.77,-1.09 -2.45,0.05 -1.63,1.19zm9.71,12.16c0.54,-0.27 0.76,-0.98 0.49,-1.52c-0.27,-0.49 -0.98,-0.71 -1.52,-0.43c-0.54,0.27 -0.71,0.98 -0.43,1.47c0.27,0.53 0.92,0.75 1.46,0.48zm7.27,13.73l-0.33,0.27c-0.33,0.22 -0.38,0.65 -0.16,0.98l2.06,2.93c0.27,0.33 0.71,0.38 1.03,0.16l7.92,-5.64c0.33,-0.27 0.38,-0.71 0.16,-1.03l-2.06,-2.88c-0.22,-0.33 -0.65,-0.43 -0.98,-0.16l-0.33,0.22c0.11,0.71 0.05,1.52 -0.16,2.28c-0.81,2.5 -3.74,4.07 -6.24,3.26c-0.31,-0.07 -0.58,-0.23 -0.91,-0.39zm3.1,-3.04c0.71,-0.38 0.98,-1.3 0.6,-2.01c-0.38,-0.71 -1.25,-1.03 -2.01,-0.65c-0.71,0.38 -0.98,1.3 -0.6,2.01c0.38,0.76 1.25,1.03 2.01,0.65zm-5.59,-0.27l-4.18,-2.82l-2.5,0.49l3.69,2.44c0.98,0.6 2.06,0.76 3.09,0.33c-0.05,-0.17 -0.05,-0.28 -0.1,-0.44zm-3.8,-5.7l-1.03,0.76c-0.16,0.11 -0.43,0.11 -0.6,0l-2.33,-1.74c-0.54,1.09 -0.49,2.5 0.22,3.53l3.42,-0.65l0.33,0.11l3.69,2.44c0,-0.43 0.11,-0.87 0.22,-1.3l-3.92,-3.15zm8.52,-8.36l0.6,3.26c0.05,0.16 -0.05,0.38 -0.22,0.49l-0.98,0.71l1.74,3.69c0.71,0.11 1.36,0.43 1.95,0.87c0.81,-1.03 0.54,-2.39 0.11,-3.53l-1.52,-3.91c-0.33,-0.76 -0.92,-1.25 -1.68,-1.58zm-3.58,9.66l-2.39,-3.09l-0.6,0.38c-0.16,0.16 -0.49,0.11 -0.6,-0.11l-1.9,-2.28c-0.81,0.54 -2.17,1.36 -2.82,2.06l2.06,1.52l1.03,-0.76c0.16,-0.11 0.38,-0.11 0.54,0l4.02,3.2c0.22,-0.32 0.44,-0.59 0.66,-0.92zm1.41,-1.03l-2.39,-3.69c-0.16,-0.22 -0.11,-0.49 0.11,-0.65l0.6,-0.43l-1.19,-2.17l-3.26,2.28l1.57,1.95l0.54,-0.38c0.22,-0.16 0.49,-0.11 0.65,0.05l2.66,3.42c0.22,-0.11 0.43,-0.27 0.71,-0.38zm-2.12,-7.49l1.47,2.66c0.11,0.22 0.05,0.49 -0.16,0.6l-0.54,0.38l2.22,3.47c0.43,-0.16 0.87,-0.22 1.36,-0.22l-1.68,-3.53c-0.11,-0.22 -0.05,-0.49 0.16,-0.6l1.09,-0.81l-0.65,-3.31c-0.81,-0.11 -1.57,0.16 -2.22,0.6l-1.05,0.76zm-18.18,-1.14l1.3,-1.57l-1.63,-1.41c-0.98,-0.87 -2.39,0.65 -1.36,1.52l1.69,1.46zm5.05,1.68l-1.3,1.52l1.68,1.41c1.03,0.92 2.28,-0.65 1.3,-1.52l-1.68,-1.41zm-2.01,0.87l1.3,-1.52l-2.28,-1.95l-1.3,1.52l2.28,1.95zm5.86,4.29c0.54,-0.27 0.76,-0.92 0.49,-1.47c-0.27,-0.54 -0.98,-0.76 -1.52,-0.49c-0.54,0.27 -0.76,0.98 -0.43,1.52c0.27,0.55 0.92,0.71 1.46,0.44zm12.54,9.98c2.12,0.71 4.4,-0.49 5.05,-2.6c0.65,-2.17 -0.54,-4.4 -2.66,-5.05c-2.12,-0.65 -4.4,0.49 -5.05,2.66c-0.65,2.06 0.48,4.34 2.66,4.99zm2.33,-1.68c-1.19,0.65 -2.66,0.16 -3.31,-0.98c-0.6,-1.19 -0.16,-2.71 1.03,-3.31c1.19,-0.65 2.66,-0.16 3.31,1.03c0.6,1.2 0.16,2.67 -1.03,3.26z"/>
  <text id="svg_2" font-family="'Helvetica Neue', Helvetica, Arial-Unicode, Arial, Sans-serif" font-weight="bold" font-size="5px" fill="#000000" y="57" x="0">Created by Besokpagi</text>
  <text id="svg_3" font-family="'Helvetica Neue', Helvetica, Arial-Unicode, Arial, Sans-serif" font-weight="bold" font-size="5px" fill="#000000" y="62" x="0">from the Noun Project</text>
 </g>
</svg>