<?xml version="1.0" encoding="iso-8859-1"?>
<!-- Uploaded to: SVG Repo, www.svgrepo.com, Generator: SVG Repo Mixer Tools -->
<svg height="800px" width="800px" version="1.1" id="Layer_1" xmlns="http://www.w3.org/2000/svg" xmlns:xlink="http://www.w3.org/1999/xlink" 
	 viewBox="0 0 512 512" xml:space="preserve">
<path style="fill:#FDC794;" d="M180.788,264.828l-11.476-11.476c-7.062-7.062-14.124-15.007-20.303-22.069
	c-20.303-23.834-56.497-34.428-81.214-24.717c-4.414,0.883-7.062,3.531-10.593,5.297c-10.593,7.062-8.828,15.007-8.828,17.655
	s50.317,53.848,79.448,105.931c0,0,25.6,42.372,52.966,70.621l16.772,50.317C208.154,489.931,239.933,512,274.36,512h74.152
	c34.428,0,69.738-29.131,77.683-62.676c1.766-7.945,5.297-19.421,10.593-25.6c7.945-8.828,17.655-30.897,17.655-61.793v-79.448
	c0-12.359,0.883-23.835,3.531-35.31l5.297-26.483c2.648-16.772-6.179-33.545-22.069-39.724
	c-22.069-7.945-44.138,6.179-47.669,27.366l-6.179,43.255l10.593-68.855c2.648-16.772-6.179-33.545-22.069-39.724
	c-22.069-7.945-44.138,6.179-47.669,27.366l-15.007,76.8l35.31-211.862C350.278,7.062,332.622,0,313.202,0
	c-19.421,0-30.897,13.241-35.31,35.31l-26.483,194.207L224.926,46.786c-3.531-25.6-15.89-37.959-35.31-37.959
	s-37.076,13.241-35.31,35.31L180.788,264.828"/>
<g>
	<path style="fill:#F9A671;" d="M189.616,291.31c-3.531,0-6.179-1.766-7.945-5.297l-8.828-17.655c-1.766-4.414,0-9.71,3.531-11.476
		c4.414-1.766,9.71,0,11.476,3.531l8.828,17.655c1.766,4.414,0,9.71-3.531,11.476C192.264,291.31,191.381,291.31,189.616,291.31z"/>
	<path style="fill:#F9A671;" d="M224.926,441.379c-1.766,0-3.531-0.883-5.297-1.766c-5.297-4.414-9.71-7.062-15.007-11.476
		c-7.062-4.414-13.241-9.71-20.303-15.89c-3.531-3.531-3.531-8.828-0.883-12.359c3.531-3.531,8.828-3.531,12.359-0.883
		c6.179,5.297,12.359,9.71,18.538,14.124c5.297,3.531,10.593,7.062,15.89,12.359c3.531,3.531,4.414,8.828,0.883,12.359
		C230.222,440.497,227.574,441.379,224.926,441.379z"/>
	<path style="fill:#F9A671;" d="M401.478,450.207c-2.648,0-5.297-1.766-7.062-3.531c-2.648-4.414-1.766-9.71,2.648-12.359
		c4.414-2.648,7.945-5.297,11.476-7.062c5.297-2.648,8.828-4.414,13.241-8.828c3.531-3.531,8.828-3.531,12.359,0
		c3.531,3.531,3.531,8.828,0,12.359c-6.179,6.179-12.359,9.71-17.655,12.359c-3.531,1.766-6.179,3.531-9.71,5.297
		C405.009,449.324,403.243,450.207,401.478,450.207z"/>
	<path style="fill:#F9A671;" d="M251.409,264.828c-5.297,0-8.828-3.531-8.828-8.828v-26.483c0-5.297,3.531-8.828,8.828-8.828
		c5.297,0,8.828,3.531,8.828,8.828V256C260.236,261.297,256.705,264.828,251.409,264.828z"/>
	<path style="fill:#F9A671;" d="M383.822,238.345c-0.883,0-1.766,0-2.648-0.883c-4.414-1.766-7.062-6.179-5.297-11.476l8.828-26.483
		c1.766-4.414,6.179-7.062,11.476-5.297c4.414,1.766,7.062,6.179,5.297,11.476l-8.828,26.483
		C390.885,235.697,387.354,238.345,383.822,238.345z"/>
	<path style="fill:#F9A671;" d="M313.202,256c-0.883,0-0.883,0-1.766,0c-4.414-0.883-7.945-6.179-7.062-10.593l17.655-79.448
		c0.883-4.414,6.179-7.945,10.593-7.062c4.414,0.883,7.945,6.179,7.062,10.593l-17.655,79.448
		C321.147,253.352,317.616,256,313.202,256z"/>
</g>
</svg>